<?xml version="1.0" standalone="no"?>
<!DOCTYPE svg PUBLIC "-//W3C//DTD SVG 20010904//EN"
 "http://www.w3.org/TR/2001/REC-SVG-20010904/DTD/svg10.dtd">
<svg version="1.0" xmlns="http://www.w3.org/2000/svg"
 width="256.000000pt" height="256.000000pt" viewBox="0 0 256.000000 256.000000"
 preserveAspectRatio="xMidYMid meet">

<g transform="translate(0.000000,256.000000) scale(0.100000,-0.100000)"
fill="#000000" stroke="none">
<path d="M1201 2546 c-84 -30 -149 -118 -156 -208 -3 -43 -7 -52 -32 -65 -80
-42 -102 -92 -103 -236 0 -60 -3 -107 -7 -105 -5 2 -48 26 -98 53 -80 45 -97
50 -150 50 -45 0 -69 -6 -97 -23 -34 -21 -39 -22 -60 -8 -13 8 -45 20 -71 27
-143 35 -287 -83 -287 -236 0 -60 45 -142 100 -184 35 -26 45 -41 47 -64 5
-102 37 -146 155 -214 43 -24 78 -48 78 -53 0 -5 -35 -29 -78 -53 -118 -68
-150 -112 -155 -214 -2 -23 -12 -38 -47 -64 -55 -42 -100 -124 -100 -185 0
-174 186 -293 339 -217 l45 22 35 -22 c27 -16 52 -22 96 -22 53 0 70 5 150 50
50 28 93 51 97 53 4 2 8 -20 10 -49 3 -59 24 -83 52 -60 12 10 16 33 16 102 0
88 1 90 35 127 l34 37 32 -32 32 -31 -22 -27 c-17 -22 -21 -41 -21 -97 0 -76
11 -108 38 -108 27 0 42 20 42 54 l0 31 130 0 130 0 0 -31 c0 -49 33 -69 64
-38 12 11 16 35 16 88 0 60 -4 78 -21 101 l-22 27 32 31 32 32 34 -37 35 -38
0 -130 c0 -145 -11 -187 -55 -216 -26 -17 -27 -17 -63 23 -82 89 -199 110
-299 53 -28 -16 -61 -43 -73 -60 -12 -16 -26 -30 -31 -30 -6 0 -26 16 -46 35
-20 19 -41 35 -48 35 -16 0 -35 -22 -35 -41 0 -24 43 -73 81 -91 27 -14 31
-21 34 -66 11 -161 181 -266 325 -201 87 39 139 111 145 201 3 43 7 52 32 65
80 42 102 92 103 236 0 60 3 107 8 105 4 -1 48 -25 97 -53 80 -45 97 -50 150
-50 44 0 69 6 96 22 l35 22 45 -22 c59 -29 148 -29 204 0 163 86 180 295 33
403 -44 32 -48 38 -48 77 0 87 -34 131 -152 200 -43 25 -78 48 -78 53 0 5 35
28 78 53 118 69 152 113 152 200 0 39 4 45 48 77 80 60 129 191 86 234 -8 9
-19 16 -24 16 -14 0 -44 61 -50 99 -4 27 -13 38 -45 55 -55 29 -145 28 -204
-1 l-45 -22 -35 22 c-27 16 -52 22 -96 22 -53 0 -70 -5 -150 -50 -49 -27 -93
-51 -97 -53 -5 -2 -8 45 -8 105 -1 144 -23 194 -103 236 -25 13 -29 22 -32 65
-11 154 -170 260 -314 208z m77 -306 c48 0 76 6 114 25 l49 25 -23 -43 c-25
-45 -91 -87 -138 -87 -47 0 -113 42 -138 88 l-24 42 48 -25 c36 -19 62 -25
112 -25z m263 -61 c28 -30 29 -34 29 -135 0 -57 -2 -104 -3 -104 -2 0 -29 9
-61 20 -109 37 -244 46 -358 24 l-28 -6 0 81 0 80 50 -26 c99 -51 223 -27 293
58 18 21 36 39 40 39 5 0 22 -14 38 -31z m-764 -266 c45 -26 83 -49 83 -52 -1
-3 -21 -22 -46 -41 -48 -38 -64 -71 -44 -95 19 -23 34 -18 92 31 63 54 153
105 225 128 117 38 277 36 400 -5 51 -17 63 -24 58 -38 -22 -55 -54 -198 -49
-218 6 -21 -1 -26 -60 -53 -36 -17 -72 -30 -79 -30 -8 0 -90 32 -183 72 -172
72 -214 82 -239 57 -18 -18 -135 -296 -135 -321 0 -11 4 -27 10 -37 9 -17 4
-17 -75 3 -68 17 -85 25 -85 40 0 31 30 135 56 194 32 72 29 97 -11 97 -27 0
-33 -7 -63 -67 -18 -38 -41 -104 -50 -147 l-17 -80 -75 44 c-90 52 -119 81
-126 127 -6 35 -6 35 36 42 84 13 157 67 191 141 22 48 25 149 4 185 -20 35
-18 49 8 60 48 19 89 11 174 -37z m1188 33 c17 -13 18 -15 2 -55 -59 -146 33
-299 196 -326 43 -7 47 -25 21 -81 -12 -25 -38 -47 -101 -84 -47 -28 -86 -50
-88 -50 -1 0 -6 21 -10 47 -11 76 -59 196 -110 273 -43 68 -45 73 -28 86 10 7
21 14 25 14 14 0 19 41 8 55 -19 23 -36 19 -111 -26 -46 -28 -71 -49 -75 -65
-7 -27 -17 -29 -63 -13 -31 11 -32 14 -26 48 3 20 12 42 18 48 7 7 64 42 127
78 120 69 174 81 215 51z m-120 -381 c48 -96 65 -172 65 -285 0 -181 -55 -315
-182 -444 l-79 -80 -44 44 -44 44 76 33 c109 47 121 70 82 158 -11 25 -19 47
-17 48 49 25 65 37 77 58 13 24 10 36 -61 200 l-75 174 32 17 c39 21 57 48 75
111 l13 49 23 -29 c13 -15 40 -59 59 -98z m-724 -17 c68 -28 126 -53 128 -55
2 -1 -3 -11 -12 -21 -22 -24 -21 -57 3 -111 11 -24 20 -45 20 -47 0 -2 -15
-10 -34 -18 -19 -8 -40 -25 -47 -38 -6 -12 -13 -24 -14 -25 -4 -6 -280 116
-280 124 0 17 98 243 105 243 4 0 63 -23 131 -52z m506 -193 c40 -93 71 -175
68 -183 -12 -33 -39 -1 -81 98 -47 108 -71 140 -106 140 -11 0 -56 -15 -99
-34 l-79 -35 -15 36 c-8 19 -15 38 -15 42 0 9 232 110 244 107 5 -1 43 -78 83
-171z m-47 -197 c41 -94 76 -175 78 -178 1 -4 -34 -23 -79 -42 -76 -33 -83
-34 -110 -21 -16 8 -42 13 -59 11 -31 -3 -31 -2 -96 147 -36 82 -62 151 -57
153 4 1 58 25 118 51 61 27 115 50 120 50 6 1 44 -76 85 -171z m-495 20 l121
-50 57 -130 c46 -107 54 -134 46 -151 -21 -38 -4 -96 40 -141 23 -23 41 -45
41 -49 0 -4 -49 -7 -110 -7 -60 0 -110 3 -110 7 0 4 18 26 41 49 49 50 61 102
35 153 -31 58 -106 87 -159 60 -12 -6 -56 -45 -98 -86 l-76 -74 -52 47 c-60
54 -132 151 -160 216 l-19 45 62 -15 c54 -13 65 -13 98 1 66 28 101 123 63
173 -23 31 -18 35 23 18 20 -8 91 -38 157 -66z m-257 20 c18 -18 14 -56 -7
-68 -34 -18 -39 -12 -28 35 11 48 16 52 35 33z m1273 -49 c47 -27 71 -48 83
-73 28 -59 23 -73 -34 -85 -28 -6 -63 -17 -78 -25 -39 -21 -89 -75 -106 -118
-20 -46 -20 -145 -1 -178 20 -35 18 -45 -10 -58 -47 -21 -86 -14 -172 35 -74
41 -99 63 -75 63 17 0 122 112 164 173 48 71 91 175 108 264 14 71 2 71 121 2z
m-1655 -248 c42 -19 76 -63 88 -114 8 -35 -8 -98 -34 -129 l-19 -23 -1 54 c0
34 -8 71 -21 98 -21 44 -92 113 -116 113 -8 0 -11 5 -8 10 10 16 66 11 111 -9z
m1779 9 c3 -5 0 -10 -8 -10 -24 0 -95 -69 -116 -113 -13 -27 -21 -63 -21 -96
0 -62 -13 -60 -42 6 -34 78 0 169 76 204 45 20 101 25 111 9z m-1057 -72 c13
-13 16 -58 4 -58 -10 0 -62 53 -62 63 0 12 45 8 58 -5z m282 5 c0 -10 -52 -63
-62 -63 -12 0 -9 45 4 58 13 13 58 17 58 5z m-100 -465 c31 -16 52 -36 68 -66
l24 -42 -48 25 c-66 35 -162 35 -227 1 -38 -21 -45 -22 -40 -8 14 39 48 75 87
93 54 24 82 24 136 -3z"/>
</g>
</svg>
